<?xml version="1.0" encoding="utf-8"?>
<svg id="master-artboard" viewBox="0 0 1330 1330" version="1.1" xmlns="http://www.w3.org/2000/svg" x="0px" y="0px" style="enable-background:new 0 0 1096 780;" width="1330px" height="1330px"><rect id="ee-background" x="0" y="0" width="1330" height="1330" style="fill: rgb(95, 99, 104); fill-opacity: 0; pointer-events: none;"/>

<g transform="matrix(9.087285995483398, 0, 0, 9.087285995483398, -239.49114199946655, -234.60109932582952)"><g id="g-1" transform="matrix(1, 0, 0, 1, 0, 0)">
	<g id="g-2">
		<path class="st0" d="M 41.21464920043945 49 L 158 49 L 158 144.00782775878906 L 41.335044860839844 144.15017700195312 L 41.21464920043945 49 Z" style="fill: rgb(95, 99, 104);"/>
	</g>
</g></g><path d="M 288 568.700012 L 391.08856211523437 568.951720984375 L 391.2139893613281 595.0543322890625 L 288 595.500011 L 288 568.700012 Z" transform="matrix(5.834014892578124, 0, 0, 5.834014892578124, -1173.5859727598865, -3016.8655294600417)" style="fill: rgb(255, 255, 255);"/><path d="M 247.199997 568.700012 H 272.899998 V 595.500011 H 247.199997 V 568.700012 Z" transform="matrix(5.871981143951415, 0, 0, 5.871981143951415, -1212.5127305723865, -3035.769582194416)" style="fill: rgb(255, 255, 255);"/>

<path d="M 1238.5662841796875 348.3882141113281 L 1238.5662841796875 348.3882141113281" style="fill: rgb(255, 255, 255); fill-opacity: 1; stroke: rgb(0, 0, 0); stroke-opacity: 1; stroke-width: 0; paint-order: fill;" transform="matrix(1, 0, 0, 1, 2.8678436279296875, 19.741737365722656)"/><path d="M 313.5662841796875 383.3880615234375 L 313.5662841796875 383.3880615234375" style="fill: rgb(255, 255, 255); fill-opacity: 1; stroke: rgb(0, 0, 0); stroke-opacity: 1; stroke-width: 0; paint-order: fill;" transform="matrix(1, 0, 0, 1, -57.13215637207031, 24.741737365722656)"/><path d="M 528.5662841796875 423.3880615234375" style="fill: rgb(255, 255, 255); fill-opacity: 1; stroke: rgb(0, 0, 0); stroke-opacity: 1; stroke-width: 0; paint-order: fill;" transform="matrix(1, 0, 0, 1, -57.13215637207031, 24.741737365722656)"/><path d="M 1013.5217895507812 767.900146484375" style="fill: rgb(255, 255, 255); fill-opacity: 1; stroke: rgb(0, 0, 0); stroke-opacity: 1; stroke-width: 0; paint-order: fill;" transform="matrix(1, 0, 0, 1, -57.13215637207031, 24.741737365722656)"/><path d="M 1231.96826171875 512.4857788085938" style="fill: rgb(255, 255, 255); fill-opacity: 1; stroke: rgb(0, 0, 0); stroke-opacity: 1; stroke-width: 0; paint-order: fill;" transform="matrix(1, 0, 0, 1, -57.13215637207031, 24.741737365722656)"/><path d="M 1188.279052734375 576.33935546875" style="fill: rgb(255, 255, 255); fill-opacity: 1; stroke: rgb(0, 0, 0); stroke-opacity: 1; stroke-width: 0; paint-order: fill;" transform="matrix(1, 0, 0, 1, -57.13215637207031, 24.741737365722656)"/><path d="M 288 568.700012 L 391.08856211523437 568.951720984375 L 391.2139893613281 595.0543322890625 L 288 595.500011 L 288 568.700012 Z" transform="matrix(5.834015369415282, 0, 0, 5.834015369415282, -1173.586094830199, -2751.0769552412917)" style="fill: rgb(255, 255, 255);"/><path d="M 247.199997 568.700012 H 272.899998 V 595.500011 H 247.199997 V 568.700012 Z" transform="matrix(5.871981143951415, 0, 0, 5.871981143951415, -1212.5127305723865, -2769.981007975666)" style="fill: rgb(255, 255, 255);"/><path d="M 288 568.700012 L 391.08856211523437 568.951720984375 L 391.2139893613281 595.0543322890625 L 288 595.500011 L 288 568.700012 Z" transform="matrix(5.834015369415282, 0, 0, 5.834015369415282, -1173.586094830199, -2485.288625163166)" style="fill: rgb(255, 255, 255);"/><path d="M 247.199997 568.700012 H 272.899998 V 595.500011 H 247.199997 V 568.700012 Z" transform="matrix(5.871981143951415, 0, 0, 5.871981143951415, -1212.5127305723865, -2504.192433756916)" style="fill: rgb(255, 255, 255);"/><path d="M 195.05911254882812 1186.3858642578125" style="fill: rgb(95, 99, 104); fill-opacity: 1; stroke: rgb(0, 0, 0); stroke-opacity: 1; stroke-width: 0; paint-order: fill;"/><path d="M 323.99188232421875 138.21011352539062" style="fill: rgb(95, 99, 104); fill-opacity: 1; stroke: rgb(0, 0, 0); stroke-opacity: 1; stroke-width: 0; paint-order: fill;"/><path d="M 536.4922485351562 142.9853973388672" style="fill: rgb(95, 99, 104); fill-opacity: 1; stroke: rgb(0, 0, 0); stroke-opacity: 1; stroke-width: 0; paint-order: fill;"/><path d="M 505.4528503417969 1260.40283203125" style="fill: rgb(95, 99, 104); fill-opacity: 1; stroke: rgb(0, 0, 0); stroke-opacity: 1; stroke-width: 0; paint-order: fill;"/></svg>