<?xml version="1.0" encoding="utf-8"?>
<svg id="master-artboard" viewBox="0 0 1330 1330" version="1.1" xmlns="http://www.w3.org/2000/svg" x="0px" y="0px" style="enable-background:new 0 0 1096 780;" width="1330px" height="1330px">



<rect id="ee-background" x="0" y="0" width="1330" height="1330" style="fill: white; fill-opacity: 0; pointer-events: none;" transform="matrix(1.0819628238677979, 0, 0, 1.0819628238677979, 221.2212677001953, 63.62126922607422)"/><g transform="matrix(1.815158486366272, -0.21570470929145813, 0.21570470929145813, 1.815158486366272, 126.6646728515625, 1282.8770751953125)"><g transform="matrix(0.06841094046831131, -0.007399385794997215, 0.007399385794997215, 0.06841094046831131, 327.48065681695596, 218.02505938560043)">
	
	<g transform="matrix(-0.6896799206733704, 1.5590280294418333, -1.5590280294418333, -0.6896799206733704, -3259.970703124999, -4618.916992187499)">
		<path d="M 1141.7120666503906 250.7613983154297 L 430.03672790527344 256.3489990234375 L 412.4254150390625 -461.72840881347656 L 1141.7120666503906 250.7613983154297 Z" class="st1" style="fill: rgb(255, 255, 255); stroke: rgb(255, 255, 255); stroke-opacity: 1; stroke-width: 27;" transform="matrix(-1.3916718959808347, 0.2699931263923645, -0.2699931263923645, -1.3916718959808347, 2352.6331695644017, -3041.011514124805)"/>
	<path style="fill: rgb(255, 255, 255); fill-opacity: 1; stroke: rgb(255, 255, 255); stroke-opacity: 1; stroke-width: 27; paint-order: stroke;"/><path style="fill: rgb(255, 255, 255); fill-opacity: 1; stroke: rgb(255, 255, 255); stroke-opacity: 1; stroke-width: 27; paint-order: stroke;"/><path style="fill: rgb(255, 255, 255); fill-opacity: 1; stroke: rgb(255, 255, 255); stroke-opacity: 1; stroke-width: 27; paint-order: stroke;"/><path style="fill: rgb(255, 255, 255); fill-opacity: 1; stroke: rgb(255, 255, 255); stroke-opacity: 1; stroke-width: 27; paint-order: stroke;" transform="matrix(1.4175903797149658, 0, 0, 1.4175903797149658, -351.21132348384185, -1.5183326916499027)"/><path style="fill: rgb(255, 255, 255); fill-opacity: 1; stroke: rgb(255, 255, 255); stroke-opacity: 1; stroke-width: 27; paint-order: stroke;" transform="matrix(1.4175903797149658, 0, 0, 1.4175903797149658, -351.21132348384185, -1.5183326916499027)"/><path style="fill: rgb(255, 255, 255); fill-opacity: 1; stroke: rgb(255, 255, 255); stroke-opacity: 1; stroke-width: 27; paint-order: stroke;"/></g>
<path d="M 2563.29345703125 1470.072265625" style="fill: rgb(255, 255, 255); fill-opacity: 1; stroke: rgb(255, 255, 255); stroke-opacity: 1; stroke-width: 27; paint-order: stroke;" transform="matrix(-0.9998932480812074, -0.014611490070819855, 0.014611490070819855, -0.9998932480812074, -3184.548583984375, -3537.804931640624)"/><path d="M -3694.1630859375 -3137.335693359375" style="fill: rgb(255, 255, 255); fill-opacity: 1; stroke: rgb(255, 255, 255); stroke-opacity: 1; stroke-width: 27; paint-order: stroke;"/></g><g transform="matrix(-0.9844121627111357, 0.1436496386931308, -0.1436496386931308, -0.9844121627111357, 748.0745015818387, 711.4992981079561)"><path class="st5" d="M318.3,549.4c10.3,51.9,57.5,89.7,111.9,86.6c59.5-3.3,105.1-54.3,101.7-113.8&#10;&#9;c-3.3-59.5-54.3-105.1-113.8-101.7c-48.1,2.7-87.1,36.6-98.5,80.9" style="fill: none; stroke: rgb(255, 255, 255); stroke-width: 34; stroke-miterlimit: 10;" transform="matrix(1, 0, 0, 1, 0, 2.842170943040401e-14)"/><path d="M 187.18798828125 531.327392578125" style="fill: rgb(95, 99, 104); fill-opacity: 1; stroke: rgb(255, 255, 255); stroke-opacity: 1; stroke-width: 34; paint-order: stroke;"/></g><path d="M 622.2509155273438 181.32028198242188" style="fill: rgb(95, 99, 104); fill-opacity: 1; stroke: rgb(255, 255, 255); stroke-opacity: 1; stroke-width: 27; paint-order: stroke;" transform="matrix(0.9999999999999999, 1.3877787807814457e-17, -1.3877787807814457e-17, 0.9999999999999999, -215.78435540690595, 45.870552453059986)"/></g><path d="M 362.62139892578125 479.7806701660156" style="fill-opacity: 1; stroke: rgb(0, 0, 0); stroke-opacity: 1; stroke-width: 8; paint-order: stroke;" transform="matrix(1.2062487602233887, 0, 0, 1.2062487602233887, -168.45700073242188, 346.5848693847656)"/><path d="M 358.1723327636719 229.1488494873047" style="fill: rgb(0, 0, 0); fill-opacity: 1; stroke: rgb(0, 0, 0); stroke-opacity: 1; stroke-width: 0; paint-order: fill;" transform="matrix(1.2062487602233887, 0, 0, 1.2062487602233887, -168.45700073242188, 346.5848693847656)"/><g transform="matrix(2.4801321029663086, 0, 0, 2.4801321029663086, 104.36187744140625, 21.153209686279297)"><g transform="matrix(1.213868260383606, 0, 0, 1.2138679027557373, -84.3338343493349, -48.72398074888099)"><g transform="matrix(0.842943 0 0 0.842943 40.2065 40.2065)"><g>
	<g>
		<g>
			<path d="M405.333,245.333c0,0-42.667,46.187-42.667,74.667c0,23.573,19.093,42.667,42.667,42.667     C428.907,362.667,448,343.573,448,320C448,291.52,405.333,245.333,405.333,245.333z" data-original="#5F6368" class="active-path" data-old_color="#000000" fill="#5F6368"/>
			<path d="M162.56,0l-30.187,30.187l50.773,50.773L73.387,190.72c-12.48,12.48-12.48,32.747,0,45.227L190.72,353.28     c6.187,6.293,14.4,9.387,22.613,9.387s16.427-3.093,22.613-9.387L353.28,235.947c12.48-12.48,12.48-32.747,0-45.227L162.56,0z      M111.04,213.333l102.293-102.187l102.293,102.187H111.04z" data-original="#5F6368" class="active-path" data-old_color="#000000" fill="#5F6368"/>
		</g>
	</g>
</g><g>
	<g style="opacity:0.36;">
		<path d="M 0 426.666992 H 512 V 511.999992 H 0 V 426.666992 Z" data-original="#5F6368" class="active-path" data-old_color="#000000" fill="#5F6368"/>
	</g>
</g></g></g></g></svg>