<?xml version="1.0" encoding="utf-8"?>
<svg id="master-artboard" viewBox="0 0 1330 1330" version="1.1" xmlns="http://www.w3.org/2000/svg" x="0px" y="0px" style="enable-background:new 0 0 1096 780;" width="1330px" height="1330px"><rect id="ee-background" x="0" y="0" width="1330" height="1330" style="fill: rgb(95, 99, 104); fill-opacity: 0; pointer-events: none;"/>



<g transform="matrix(10.646208763122559, 0, 0, 10.646208763122559, -431.46652221679693, -423.8764182063869)"><g id="g-3" transform="matrix(1, 0, 0, 1, 0, 0)">
	<g id="g-4">
		<path class="st0" d="M 41.548240661621094 52.00235366821289 L 158 52.00235366821289 L 158 139.6710968017578 L 41.335044860839844 139.81344604492188 L 41.548240661621094 52.00235366821289 Z" style="fill: rgb(95, 99, 104); fill-opacity: 1;"/>
	</g>
</g></g><path d="M 247.199997 568.700012 H 272.899998 V 595.500011 H 247.199997 V 568.700012 Z" transform="matrix(8.831085205078125, 0, 0, 8.831085205078125, -2041.4567624169254, -4747.582760298718)" style="fill: rgb(255, 255, 255);"/><path d="M 820.906005859375 425.2073669433594 L 493.5384521484375 372.4061584472656" style="fill: rgb(255, 255, 255); fill-opacity: 1; stroke: rgb(0, 0, 0); stroke-opacity: 1; stroke-width: 0; paint-order: fill;" transform="matrix(1, 0, 0, 1, -130.05820310146237, -361.2148132324219)"/><path d="M 1094.9920654296875 914.9549560546875" style="fill: rgb(255, 255, 255); fill-opacity: 1; stroke: rgb(0, 0, 0); stroke-opacity: 1; stroke-width: 0; paint-order: fill;"/><path d="M 247.199997 568.700012 H 272.899998 V 595.500011 H 247.199997 V 568.700012 Z" transform="matrix(8.831085205078125, 0, 0, 8.831085205078125, -1664.2880612450504, -4747.582760298718)" style="fill: rgb(255, 255, 255);"/><path d="M 247.199997 568.700012 H 272.899998 V 595.500011 H 247.199997 V 568.700012 Z" transform="matrix(8.831085205078125, 0, 0, 8.831085205078125, -1287.1193600731754, -4749.678463423718)" style="fill: rgb(255, 255, 255);"/><path d="M 247.199997 568.700012 H 272.899998 V 595.500011 H 247.199997 V 568.700012 Z" transform="matrix(8.831085205078125, 0, 0, 8.831085205078125, -2039.3613034325504, -4349.460689986219)" style="fill: rgb(255, 255, 255);"/><path d="M 247.199997 568.700012 H 272.899998 V 595.500011 H 247.199997 V 568.700012 Z" transform="matrix(8.831085205078125, 0, 0, 8.831085205078125, -1662.1926022606754, -4349.460689986219)" style="fill: rgb(255, 255, 255);"/><path d="M 247.199997 568.700012 H 272.899998 V 595.500011 H 247.199997 V 568.700012 Z" transform="matrix(8.831085205078125, 0, 0, 8.831085205078125, -1285.0239010888004, -4351.556393111218)" style="fill: rgb(255, 255, 255);"/><path d="M 5.852238178253174 470.982177734375 L 139.95663452148438 470.982177734375 L 5.852238178253174 470.982177734375 Z" style="fill: rgb(95, 99, 104); fill-opacity: 1; stroke: rgb(0, 0, 0); stroke-opacity: 1; stroke-width: 0; paint-order: fill;" transform="matrix(Infinity, NaN, NaN, Infinity, NaN, NaN)"/><path d="M 5.852238178253174 470.982177734375 L 139.95663452148438 470.982177734375 L 5.852238178253174 470.982177734375 Z" style="fill: rgb(95, 99, 104); fill-opacity: 1; stroke: rgb(0, 0, 0); stroke-opacity: 1; stroke-width: 0; paint-order: fill;" transform="matrix(-Infinity, NaN, NaN, -Infinity, NaN, NaN)"/></svg>