<?xml version="1.0" encoding="utf-8"?>
<svg id="master-artboard" viewBox="0 0 1330 1330" version="1.1" xmlns="http://www.w3.org/2000/svg" x="0px" y="0px" style="enable-background:new 0 0 1096 780;" width="1330px" height="1330px">



<rect id="ee-background" x="0" y="0" width="1330" height="1330" style="fill: white; fill-opacity: 0; pointer-events: none;" transform="matrix(1.0819628238677979, 0, 0, 1.0819628238677979, 221.2212677001953, 63.62126922607422)"/><g transform="matrix(3.0579178166128234, 0, 0, 3.0579178166128234, 10.738361837939998, 10.738300802783748)"><g transform="matrix(0.886385 0 0 0.886385 21.196 21.196)"><g>
	
<g>
		<path d="M266.667,234.667h-16.96l-5.867-5.867c20.907-24.213,33.493-55.68,33.493-90.133C277.333,62.08,215.253,0,138.667,0    S0,62.08,0,138.667s62.08,138.667,138.667,138.667c34.453,0,65.92-12.587,90.133-33.387l5.867,5.867v16.853L341.333,373.12    l31.787-31.787L266.667,234.667z M138.667,234.667c-53.013,0-96-42.987-96-96c0-53.013,42.987-96,96-96c53.013,0,96,42.987,96,96    C234.667,191.68,191.68,234.667,138.667,234.667z" data-original="#000000" class="active-path" data-old_color="#000000" fill="#5F6368" transform="matrix(0.8899093429756886, 0, 0, 0.8899094462394714, 61.13150405883789, 53.49006652832031)"/>
	</g></g></g></g></svg>