<?xml version="1.0" encoding="utf-8"?>
<svg id="master-artboard" viewBox="0 0 1827.20703125 609.599609375" version="1.1" xmlns="http://www.w3.org/2000/svg" x="0px" y="0px" style="enable-background:new 0 0 1096 780;" width="1827.20703125px" height="609.599609375px"><rect id="ee-background" x="0" y="0" width="1827.20703125" height="609.599609375" style="fill: white; fill-opacity: 0; pointer-events: none;"/><defs><clipPath id="clipPath18" clipPathUnits="userSpaceOnUse"><path id="path16" d="M 0,928 H 1502 V 0 H 0 Z"/></clipPath><clipPath id="clipPath46" clipPathUnits="userSpaceOnUse"><path id="path44" d="M 530.797,799.473 H 943.992 V 653.641 H 530.797 Z"/></clipPath><clipPath id="clipPath62" clipPathUnits="userSpaceOnUse"><path id="path60" d="M 585.703,706.566 H 943.992 V 559.715 H 585.703 Z"/></clipPath><clipPath id="clipPath78" clipPathUnits="userSpaceOnUse"><path id="path76" d="M 481.614,655.137 H 834.062 V 412.859 H 481.614 Z"/></clipPath><clipPath id="clipPath94" clipPathUnits="userSpaceOnUse"><path id="path92" d="M 481.614,561.215 H 780.625 V 319.953 H 481.614 Z"/></clipPath><clipPath id="clipPath110" clipPathUnits="userSpaceOnUse"><path id="path108" d="M 778.891,703.57 H 1020.96 V 319.953 H 778.891 Z"/></clipPath><clipPath id="clipPath130" clipPathUnits="userSpaceOnUse"><path id="path128" d="M 778.891,703.57 H 1020.96 V 319.953 H 778.891 Z"/></clipPath><clipPath id="clipPath150" clipPathUnits="userSpaceOnUse"><path id="path148" d="m 634.402,799.473 c -12.886,0 -24.785,-6.891 -31.199,-18.071 v 0 L 486.32,577.606 c -6.355,-11.087 -6.355,-24.696 0,-35.785 v 0 L 603.203,338.024 c 6.414,-11.176 18.313,-18.071 31.199,-18.071 v 0 h 233.77 c 12.883,0 24.781,6.895 31.195,18.071 v 0 l 116.883,203.797 c 6.355,11.089 6.355,24.698 0,35.785 v 0 l -72.258,125.964 -44.625,77.832 c -6.414,11.18 -18.312,18.071 -31.195,18.071 v 0 z"/></clipPath><radialGradient id="radialGradient164" spreadMethod="pad" gradientTransform="matrix(553.65015,0,0,553.65015,559.08789,767.08496)" gradientUnits="userSpaceOnUse" r="1" cy="0" cx="0" fy="0" fx="0"><stop id="stop160" offset="0" style="stop-opacity:0.09999237;stop-color:#ffffff"/><stop id="stop162" offset="1" style="stop-opacity:0;stop-color:#ffffff"/></radialGradient><mask id="mask166" height="1" width="1" y="0" x="0" maskUnits="userSpaceOnUse"><g id="g176"><g id="g174"><g id="g172"><g id="g170"><path id="path168" style="fill:url(#radialGradient164);stroke:none" d="M -32768,32767 H 32767 V -32768 H -32768 Z"/></g></g></g></g></mask><radialGradient id="radialGradient186" spreadMethod="pad" gradientTransform="matrix(553.65015,0,0,553.65015,559.08789,767.08496)" gradientUnits="userSpaceOnUse" r="1" cy="0" cx="0" fy="0" fx="0"><stop id="stop182" offset="0" style="stop-opacity:1;stop-color:#ffffff"/><stop id="stop184" offset="1" style="stop-opacity:1;stop-color:#ffffff"/></radialGradient><clipPath id="clipPath196" clipPathUnits="userSpaceOnUse"><path id="path194" d="M 128,80 H 1374 V 272 H 128 Z"/></clipPath><clipPath id="clipPath254" clipPathUnits="userSpaceOnUse"><path id="path252" d="M 0,136 H 416 V 0 H 0 Z"/></clipPath></defs>



<metadata id="metadata8"/><g transform="matrix(4.312370300292969, 0, 0, 4.312370300292969, -312.38128662109375, -1620.700605392456)" id="g246"><g id="g248" transform="matrix(1, 0, 0, 1, 78.9464654042913, 379.92986475815167)"><g clip-path="url(#clipPath254)" id="g250"><g transform="translate(0.7227,52.5654)" id="g256"><path id="path258" style="fill: rgb(95, 99, 104); fill-opacity: 1; fill-rule: nonzero; stroke: none;" d="m 0,0 c 0,-28.929 24.321,-52.482 53.251,-52.482 16.001,0 27.394,6.272 35.97,14.464 L 79.108,-27.905 C 72.964,-33.665 64.644,-38.146 53.251,-38.146 32.13,-38.146 15.617,-21.12 15.617,0 c 0,21.121 16.513,38.145 37.634,38.145 13.696,0 21.505,-5.503 26.497,-10.496 4.097,-4.095 6.784,-9.984 7.809,-18.048 H 53.251 V -4.735 h 48.258 c 0.512,2.559 0.768,5.631 0.768,8.96 0,10.753 -2.944,24.065 -12.417,33.538 C 80.645,47.362 68.867,52.482 53.251,52.482 24.321,52.482 0,28.93 0,0"/></g><g transform="translate(142.0005,91.7354)" id="g260"><path id="path262" style="fill: rgb(95, 99, 104); fill-opacity: 1; fill-rule: nonzero; stroke: none;" d="m 0,0 c -10.241,0 -19.073,-8.448 -19.073,-20.482 0,-12.16 8.832,-20.48 19.073,-20.48 10.24,0 19.072,8.32 19.072,20.48 C 19.072,-8.448 10.24,0 0,0 m 0,-54.275 c -18.689,0 -33.922,14.21 -33.922,33.793 0,19.457 15.233,33.794 33.922,33.794 18.689,0 33.921,-14.337 33.921,-33.794 0,-19.583 -15.232,-33.793 -33.921,-33.793"/></g><g transform="translate(216,91.7354)" id="g264"><path id="path266" style="fill: rgb(95, 99, 104); fill-opacity: 1; fill-rule: nonzero; stroke: none;" d="m 0,0 c -10.24,0 -19.073,-8.448 -19.073,-20.482 0,-12.16 8.833,-20.48 19.073,-20.48 10.24,0 19.072,8.32 19.072,20.48 C 19.072,-8.448 10.24,0 0,0 m 0,-54.275 c -18.689,0 -33.922,14.21 -33.922,33.793 0,19.457 15.233,33.794 33.922,33.794 18.688,0 33.922,-14.337 33.922,-33.794 0,-19.583 -15.234,-33.793 -33.922,-33.793"/></g><g transform="translate(289.8057,91.7354)" id="g268"><path id="path270" style="fill: rgb(95, 99, 104); fill-opacity: 1; fill-rule: nonzero; stroke: none;" d="m 0,0 c -10.24,0 -18.817,-8.576 -18.817,-20.353 0,-11.904 8.577,-20.609 18.817,-20.609 10.112,0 18.049,8.705 18.049,20.609 C 18.049,-8.576 10.112,0 0,0 m 17.024,-52.227 v 5.505 h -0.511 c -3.328,-3.968 -9.729,-7.553 -17.793,-7.553 -16.897,0 -32.386,14.849 -32.386,33.922 0,18.946 15.489,33.665 32.386,33.665 8.064,0 14.465,-3.584 17.793,-7.68 h 0.511 v 4.865 c 0,12.928 -6.912,19.84 -18.048,19.84 -9.088,0 -14.721,-6.527 -17.025,-12.031 l -12.929,5.375 c 3.712,8.961 13.569,19.969 29.954,19.969 17.409,0 32.129,-10.241 32.129,-35.202 v -60.675 z"/></g><path id="path272" style="fill: rgb(95, 99, 104); fill-opacity: 1; fill-rule: nonzero; stroke: none;" d="M 346,103 H 331.151 V 3.668 H 346 Z"/><g transform="translate(385.5537,50.5176)" id="g274"><path id="path276" style="fill: rgb(95, 99, 104); fill-opacity: 1; fill-rule: nonzero; stroke: none;" d="M 0,0 C 5.889,0 10.881,2.944 12.545,7.168 L -17.664,19.713 C -18.049,6.656 -7.552,0 0,0 m 1.152,41.218 c -7.552,0 -12.928,-3.456 -16.384,-10.24 L 29.954,12.289 28.418,8.448 c -2.816,-7.551 -11.393,-21.505 -28.93,-21.505 -17.409,0 -31.873,13.698 -31.873,33.793 0,18.946 14.336,33.794 33.537,33.794 15.489,0 24.45,-9.471 28.162,-14.976 L 17.793,31.873 c -3.84,5.633 -9.088,9.345 -16.641,9.345"/></g></g></g></g></svg>