<?xml version="1.0" encoding="utf-8"?>
<svg id="master-artboard" viewBox="0 0 1330 1330" version="1.1" xmlns="http://www.w3.org/2000/svg" x="0px" y="0px" style="enable-background:new 0 0 1096 780;" width="1330px" height="1330px"><rect id="ee-background" x="0" y="0" width="1330" height="1330" style="fill: rgb(95, 99, 104); fill-opacity: 0; pointer-events: none;"/>

<g transform="matrix(10.817638970315574, 0, 0, 10.817638970315574, -397.5210777073682, -409.2275175532757)"><g id="g-1" transform="matrix(1, 0, 0, 1, 0, 0)">
	<g id="g-2">
		<path class="st0" d="M 41.21464920043945 49 L 158 49 L 158 144.00782775878906 L 41.335044860839844 144.15017700195312 L 41.21464920043945 49 Z" style="fill: rgb(255, 255, 255);"/>
	</g>
</g></g><path d="M 288 568.700012 L 391.08856211523437 568.951720984375 L 391.2139893613281 595.0543322890625 L 288 595.500011 L 288 568.700012 Z" transform="matrix(6.4771623611450195, 0, 0, 6.4771623611450195, -1372.765668405213, -3434.566146303621)" style="fill: rgb(0, 0, 0);"/><path d="M 247.199997 568.700012 H 272.899998 V 595.500011 H 247.199997 V 568.700012 Z" transform="matrix(6.519314289093018, 0, 0, 6.519314289093018, -1415.9838080536506, -3455.5546716942454)" style="fill: rgb(0, 0, 0);"/>

<path d="M 1238.5662841796875 348.3882141113281 L 1238.5662841796875 348.3882141113281" style="fill: rgb(255, 255, 255); fill-opacity: 1; stroke: rgb(0, 0, 0); stroke-opacity: 1; stroke-width: 0; paint-order: fill;" transform="matrix(1, 0, 0, 1, 2.8678436279296875, 19.741737365722656)"/><path d="M 313.5662841796875 383.3880615234375 L 313.5662841796875 383.3880615234375" style="fill: rgb(255, 255, 255); fill-opacity: 1; stroke: rgb(0, 0, 0); stroke-opacity: 1; stroke-width: 0; paint-order: fill;" transform="matrix(1, 0, 0, 1, -57.13215637207031, 24.741737365722656)"/><path d="M 528.5662841796875 423.3880615234375" style="fill: rgb(255, 255, 255); fill-opacity: 1; stroke: rgb(0, 0, 0); stroke-opacity: 1; stroke-width: 0; paint-order: fill;" transform="matrix(1, 0, 0, 1, -57.13215637207031, 24.741737365722656)"/><path d="M 1013.5217895507812 767.900146484375" style="fill: rgb(255, 255, 255); fill-opacity: 1; stroke: rgb(0, 0, 0); stroke-opacity: 1; stroke-width: 0; paint-order: fill;" transform="matrix(1, 0, 0, 1, -57.13215637207031, 24.741737365722656)"/><path d="M 1231.96826171875 512.4857788085938" style="fill: rgb(255, 255, 255); fill-opacity: 1; stroke: rgb(0, 0, 0); stroke-opacity: 1; stroke-width: 0; paint-order: fill;" transform="matrix(1, 0, 0, 1, -57.13215637207031, 24.741737365722656)"/><path d="M 1188.279052734375 576.33935546875" style="fill: rgb(255, 255, 255); fill-opacity: 1; stroke: rgb(0, 0, 0); stroke-opacity: 1; stroke-width: 0; paint-order: fill;" transform="matrix(1, 0, 0, 1, -57.13215637207031, 24.741737365722656)"/><path d="M 288 568.700012 L 391.08856211523437 568.951720984375 L 391.2139893613281 595.0543322890625 L 288 595.500011 L 288 568.700012 Z" transform="matrix(6.477163791656494, 0, 0, 6.477163791656494, -1372.7660346161506, -3139.4777673973704)" style="fill: rgb(0, 0, 0);"/><path d="M 247.199997 568.700012 H 272.899998 V 595.500011 H 247.199997 V 568.700012 Z" transform="matrix(6.519314289093018, 0, 0, 6.519314289093018, -1415.9838080536506, -3160.4650720848704)" style="fill: rgb(0, 0, 0);"/><path d="M 288 568.700012 L 391.08856211523437 568.951720984375 L 391.2139893613281 595.0543322890625 L 288 595.500011 L 288 568.700012 Z" transform="matrix(6.477163791656494, 0, 0, 6.477163791656494, -1372.7660346161506, -2844.3884119286204)" style="fill: rgb(0, 0, 0);"/><path d="M 247.199997 568.700012 H 272.899998 V 595.500011 H 247.199997 V 568.700012 Z" transform="matrix(6.519314289093018, 0, 0, 6.519314289093018, -1415.9838080536506, -2865.3757166161204)" style="fill: rgb(0, 0, 0);"/><path d="M 195.05911254882812 1186.3858642578125" style="fill: rgb(95, 99, 104); fill-opacity: 1; stroke: rgb(0, 0, 0); stroke-opacity: 1; stroke-width: 0; paint-order: fill;"/><path d="M 323.99188232421875 138.21011352539062" style="fill: rgb(95, 99, 104); fill-opacity: 1; stroke: rgb(0, 0, 0); stroke-opacity: 1; stroke-width: 0; paint-order: fill;"/><path d="M 536.4922485351562 142.9853973388672" style="fill: rgb(95, 99, 104); fill-opacity: 1; stroke: rgb(0, 0, 0); stroke-opacity: 1; stroke-width: 0; paint-order: fill;"/><path d="M 505.4528503417969 1260.40283203125" style="fill: rgb(95, 99, 104); fill-opacity: 1; stroke: rgb(0, 0, 0); stroke-opacity: 1; stroke-width: 0; paint-order: fill;"/><path d="M 249.9749298095703 591.8624877929688" style="fill: rgb(0, 0, 0); fill-opacity: 1; stroke: rgb(0, 0, 0); stroke-opacity: 1; stroke-width: 0; paint-order: fill;"/></svg>