<?xml version="1.0" encoding="utf-8"?>
<svg id="master-artboard" viewBox="0 0 1330 1330" version="1.1" xmlns="http://www.w3.org/2000/svg" x="0px" y="0px" style="enable-background:new 0 0 1096 780;" width="1330px" height="1330px"><rect id="ee-background" x="0" y="0" width="1330" height="1330" style="fill: rgb(95, 99, 104); fill-opacity: 0; pointer-events: none;"/>



<g transform="matrix(10.646208763122559, 0, 0, 10.646208763122559, -392.87310791015625, -286.6558837890625)"><g id="g-1" transform="matrix(1, 0, 0, 1, 0, 0)">
	<g id="g-2">
		<path class="st0" d="M 41.548240661621094 52.00235366821289 L 158 52.00235366821289 L 158 139.6710968017578 L 41.335044860839844 139.81344604492188 L 41.548240661621094 52.00235366821289 Z" style="fill: rgb(255, 255, 255); fill-opacity: 1;"/>
	</g>
</g></g><path d="M 247.199997 568.700012 H 272.899998 V 595.500011 H 247.199997 V 568.700012 Z" transform="matrix(8.831085205078125, 0, 0, 8.831085205078125, -2002.8634033203125, -4610.3619384765625)" style="fill: rgb(0, 0, 0);"/><path d="M 247.199997 568.700012 H 272.899998 V 595.500011 H 247.199997 V 568.700012 Z" transform="matrix(8.831085205078125, 0, 0, 8.831085205078125, -1625.6947021484375, -4610.3619384765625)" style="fill: rgb(0, 0, 0);"/><path d="M 247.199997 568.700012 H 272.899998 V 595.500011 H 247.199997 V 568.700012 Z" transform="matrix(8.831085205078125, 0, 0, 8.831085205078125, -1248.5260009765625, -4612.4576416015625)" style="fill: rgb(0, 0, 0);"/><path d="M 247.199997 568.700012 H 272.899998 V 595.500011 H 247.199997 V 568.700012 Z" transform="matrix(8.831085205078125, 0, 0, 8.831085205078125, -2000.7679443359375, -4212.2398681640625)" style="fill: rgb(0, 0, 0);"/><path d="M 247.199997 568.700012 H 272.899998 V 595.500011 H 247.199997 V 568.700012 Z" transform="matrix(8.831085205078125, 0, 0, 8.831085205078125, -1623.5992431640625, -4212.2398681640625)" style="fill: rgb(0, 0, 0);"/><path d="M 247.199997 568.700012 H 272.899998 V 595.500011 H 247.199997 V 568.700012 Z" transform="matrix(8.831085205078125, 0, 0, 8.831085205078125, -1246.4305419921875, -4214.3355712890625)" style="fill: rgb(0, 0, 0);"/><path d="M 5.852238178253174 470.982177734375 L 139.95663452148438 470.982177734375 L 5.852238178253174 470.982177734375 Z" style="fill: rgb(95, 99, 104); fill-opacity: 1; stroke: rgb(0, 0, 0); stroke-opacity: 1; stroke-width: 0; paint-order: fill;" transform="matrix(1, 0, 0, 1, 38.5933837890625, 137.2205810546875)"/><path d="M 5.852238178253174 470.982177734375 L 139.95663452148438 470.982177734375 L 5.852238178253174 470.982177734375 Z" style="fill: rgb(95, 99, 104); fill-opacity: 1; stroke: rgb(0, 0, 0); stroke-opacity: 1; stroke-width: 0; paint-order: fill;" transform="matrix(1, 0, 0, 1, 38.5933837890625, 137.2205810546875)"/><path d="M 577.9463500976562 570.998779296875" style="fill: rgb(0, 0, 0); fill-opacity: 1; stroke: rgb(0, 0, 0); stroke-opacity: 1; stroke-width: 0; paint-order: fill;"/><path d="M 663.7093505859375 532.4054565429688" style="fill: rgb(0, 0, 0); fill-opacity: 1; stroke: rgb(0, 0, 0); stroke-opacity: 1; stroke-width: 0; paint-order: fill;"/></svg>