<?xml version="1.0" encoding="utf-8"?>
<svg id="master-artboard" viewBox="0 0 470.9158630371094 522.2086791992188" version="1.1" xmlns="http://www.w3.org/2000/svg" x="0px" y="0px" style="enable-background:new 0 0 1096 780;" width="470.9158630371094px" height="522.2086791992188px">



<rect id="ee-background" x="0" y="0" width="470.9158630371094" height="522.2086791992188" style="fill: white; fill-opacity: 0; pointer-events: none;" transform="matrix(1.0819628238677979, 0, 0, 1.0819628238677979, 221.2212677001953, 63.62126922607422)"/><g transform="matrix(1.815158486366272, -0.21570470929145813, 0.21570470929145813, 1.815158486366272, -274.8093566894531, -110.69808852672577)"><g transform="matrix(-0.9844121627111357, 0.1436496386931308, -0.1436496386931308, -0.9844121627111357, 748.0745015818387, 711.4992981079561)"><path d="M 187.18798828125 531.327392578125" style="fill: rgb(95, 99, 104); fill-opacity: 1; stroke: rgb(255, 255, 255); stroke-opacity: 1; stroke-width: 34; paint-order: stroke;"/><path class="st5" d="M318.3,549.4c10.3,51.9,57.5,89.7,111.9,86.6c59.5-3.3,105.1-54.3,101.7-113.8&#10;&#9;c-3.3-59.5-54.3-105.1-113.8-101.7c-48.1,2.7-87.1,36.6-98.5,80.9" style="fill: none; stroke: rgb(255, 255, 255); stroke-width: 25; stroke-miterlimit: 10;" transform="matrix(1, 0, 0, 1, 0, 2.842170943040401e-14)"/></g><path d="M 622.2509155273438 181.32028198242188" style="fill: rgb(95, 99, 104); fill-opacity: 1; stroke: rgb(255, 255, 255); stroke-opacity: 1; stroke-width: 27; paint-order: stroke;" transform="matrix(0.9999999999999999, 1.3877787807814457e-17, -1.3877787807814457e-17, 0.9999999999999999, -215.78435540690595, 45.870552453059986)"/><g transform="matrix(0.06841094046831131, -0.007399385794997215, 0.007399385794997215, 0.06841094046831131, 327.48065681695596, 218.02505938560043)">
	
	<g transform="matrix(-0.6896799206733704, 1.5590280294418333, -1.5590280294418333, -0.6896799206733704, -3259.970703124999, -4618.916992187499)">
		<path d="M 1141.7120666503906 250.7613983154297 L 430.03672790527344 256.3489990234375 L 412.4254150390625 -461.72840881347656 L 1141.7120666503906 250.7613983154297 Z" class="st1" style="fill: rgb(255, 255, 255); stroke: rgb(255, 255, 255); stroke-opacity: 1; stroke-width: 0;" transform="matrix(-1.3916718959808347, 0.2699931263923645, -0.2699931263923645, -1.3916718959808347, 2352.6331695644017, -3041.011514124805)"/>
	<path style="fill: rgb(255, 255, 255); fill-opacity: 1; stroke: rgb(255, 255, 255); stroke-opacity: 1; stroke-width: 0; paint-order: stroke;"/><path style="fill: rgb(255, 255, 255); fill-opacity: 1; stroke: rgb(255, 255, 255); stroke-opacity: 1; stroke-width: 0; paint-order: stroke;"/><path style="fill: rgb(255, 255, 255); fill-opacity: 1; stroke: rgb(255, 255, 255); stroke-opacity: 1; stroke-width: 0; paint-order: stroke;"/><path style="fill: rgb(255, 255, 255); fill-opacity: 1; stroke: rgb(255, 255, 255); stroke-opacity: 1; stroke-width: 0; paint-order: stroke;" transform="matrix(1.4175903797149658, 0, 0, 1.4175903797149658, -351.21132348384185, -1.5183326916499027)"/><path style="fill: rgb(255, 255, 255); fill-opacity: 1; stroke: rgb(255, 255, 255); stroke-opacity: 1; stroke-width: 0; paint-order: stroke;" transform="matrix(1.4175903797149658, 0, 0, 1.4175903797149658, -351.21132348384185, -1.5183326916499027)"/><path style="fill: rgb(255, 255, 255); fill-opacity: 1; stroke: rgb(255, 255, 255); stroke-opacity: 1; stroke-width: 0; paint-order: stroke;"/></g>
<path d="M 2563.29345703125 1470.072265625" style="fill: rgb(255, 255, 255); fill-opacity: 1; stroke: rgb(255, 255, 255); stroke-opacity: 1; stroke-width: 0; paint-order: stroke;" transform="matrix(-0.9998932480812074, -0.014611490070819855, 0.014611490070819855, -0.9998932480812074, -3184.548583984375, -3537.804931640624)"/><path d="M -3694.1630859375 -3137.335693359375" style="fill: rgb(255, 255, 255); fill-opacity: 1; stroke: rgb(255, 255, 255); stroke-opacity: 1; stroke-width: 0; paint-order: stroke;"/></g></g></svg>